<svg width="13" height="17" viewBox="0 0 13 17" fill="none" xmlns="http://www.w3.org/2000/svg">
<path d="M11.459 2.25802V14.6123L7.25143 10.5738L6.36614 9.72829L5.48085 10.5738L1.27323 14.6123V2.25802H11.459ZM11.5784 0.984795C11.2701 0.984795 1.46222 0.984795 1.15386 0.984795C1.00466 0.984795 0.85545 1.01464 0.71619 1.07432C0.278518 1.24342 0 1.65125 0 2.09887V14.9207C0 15.3683 0.278518 15.7761 0.71619 15.9452C0.85545 16.0049 1.00466 16.0347 1.15386 16.0347C1.46222 16.0347 1.75069 15.9154 1.97947 15.7065L6.36614 11.4889L10.7528 15.7065C10.9816 15.9154 11.2701 16.0248 11.5784 16.0248C11.7276 16.0248 11.8768 16.0049 12.0161 15.9452C12.4538 15.7761 12.7323 15.3683 12.7323 14.9207V2.09887C12.7323 1.65125 12.4538 1.24342 12.0161 1.07432C11.8768 1.01464 11.7276 0.984795 11.5784 0.984795Z" fill="white"/>
</svg>
