<svg width="11" height="13" viewBox="0 0 11 13" fill="none" xmlns="http://www.w3.org/2000/svg">
<path d="M9.64286 1.28571V11.6819L6.10212 8.28348L5.35714 7.57199L4.61217 8.28348L1.07143 11.6819V1.28571H9.64286ZM9.7433 0.214285C9.48382 0.214285 1.23047 0.214285 0.970982 0.214285C0.845424 0.214285 0.719866 0.239397 0.602679 0.28962C0.234375 0.43192 0 0.775111 0 1.15179V11.9414C0 12.3181 0.234375 12.6613 0.602679 12.8036C0.719866 12.8538 0.845424 12.8789 0.970982 12.8789C1.23047 12.8789 1.47321 12.7785 1.66574 12.6027L5.35714 9.05357L9.04855 12.6027C9.24107 12.7785 9.48382 12.8705 9.7433 12.8705C9.86886 12.8705 9.99442 12.8538 10.1116 12.8036C10.4799 12.6613 10.7143 12.3181 10.7143 11.9414V1.15179C10.7143 0.775111 10.4799 0.43192 10.1116 0.28962C9.99442 0.239397 9.86886 0.214285 9.7433 0.214285Z" fill="#FA6262"/>
</svg>
