<svg width="18" height="15" viewBox="0 0 18 15" fill="none" xmlns="http://www.w3.org/2000/svg">
<path d="M7.09064 1.54095C10.1941 1.54095 12.8202 3.29164 12.8202 5.36064C12.8202 7.42963 10.1941 9.18032 7.09064 9.18032C6.57339 9.18032 6.06609 9.13058 5.56874 9.04106L5.04154 8.94159L4.60387 9.24995C4.40493 9.38921 4.19604 9.51852 3.98715 9.63788L4.3353 8.80233L3.37043 8.24529C2.0972 7.50921 1.36112 6.45482 1.36112 5.36064C1.36112 3.29164 3.98715 1.54095 7.09064 1.54095ZM7.09064 0.267727C3.22122 0.267727 0.0878906 2.54561 0.0878906 5.36064C0.0878906 6.97206 1.12239 8.41439 2.73382 9.34942C2.39562 10.175 1.95794 10.563 1.57001 11.0006C1.46059 11.1299 1.33128 11.2493 1.37107 11.4383C1.40091 11.6074 1.54017 11.7268 1.68937 11.7268C1.69932 11.7268 1.70927 11.7268 1.71921 11.7268C2.01763 11.687 2.30609 11.6372 2.57466 11.5676C3.57932 11.309 4.51434 10.8813 5.33995 10.2944C5.89699 10.3939 6.48387 10.4535 7.09064 10.4535C10.9601 10.4535 14.0934 8.17566 14.0934 5.36064C14.0934 2.54561 10.9601 0.267727 7.09064 0.267727ZM15.2671 11.8959C16.8786 10.9608 17.9131 9.52847 17.9131 7.90709C17.9131 6.24593 16.8189 4.77376 15.1378 3.84868C15.287 4.33609 15.3666 4.84339 15.3666 5.36064C15.3666 7.14116 14.4515 8.78243 12.7903 9.99598C11.2485 11.1101 9.22927 11.7268 7.09064 11.7268C6.80218 11.7268 6.50376 11.7069 6.2153 11.687C7.45868 12.5026 9.1099 13 10.9103 13C11.5171 13 12.104 12.9403 12.661 12.8408C13.4866 13.4277 14.4216 13.8554 15.4263 14.1141C15.6949 14.1837 15.9833 14.2334 16.2818 14.2732C16.4409 14.2931 16.5901 14.1638 16.6299 13.9848C16.6697 13.7958 16.5404 13.6764 16.431 13.5471C16.043 13.1094 15.6053 12.7215 15.2671 11.8959Z" fill="white"/>
</svg>
