<svg width="15" height="13" viewBox="0 0 15 13" fill="none" xmlns="http://www.w3.org/2000/svg">
<path d="M5.89286 1.35714C8.50446 1.35714 10.7143 2.83036 10.7143 4.57143C10.7143 6.3125 8.50446 7.78571 5.89286 7.78571C5.45759 7.78571 5.03069 7.74386 4.61217 7.66853L4.16853 7.58482L3.80022 7.84431C3.63281 7.9615 3.45703 8.07031 3.28125 8.17076L3.57422 7.46763L2.76228 6.99888C1.69085 6.37946 1.07143 5.49219 1.07143 4.57143C1.07143 2.83036 3.28125 1.35714 5.89286 1.35714ZM5.89286 0.285714C2.63672 0.285714 0 2.20257 0 4.57143C0 5.92746 0.870536 7.14118 2.22656 7.92801C1.94196 8.62277 1.57366 8.94922 1.24721 9.31752C1.15513 9.42634 1.04632 9.52679 1.0798 9.68583C1.10491 9.82812 1.2221 9.92857 1.34766 9.92857C1.35603 9.92857 1.3644 9.92857 1.37277 9.92857C1.62388 9.89509 1.86663 9.85324 2.09263 9.79464C2.93806 9.57701 3.72489 9.21708 4.41964 8.72321C4.88839 8.80692 5.38225 8.85714 5.89286 8.85714C9.149 8.85714 11.7857 6.94029 11.7857 4.57143C11.7857 2.20257 9.149 0.285714 5.89286 0.285714ZM12.7734 10.0709C14.1295 9.28404 15 8.07868 15 6.71429C15 5.31641 14.0792 4.07757 12.6646 3.29911C12.7902 3.70926 12.8571 4.13616 12.8571 4.57143C12.8571 6.06975 12.0871 7.45089 10.6892 8.4721C9.39174 9.4096 7.69252 9.92857 5.89286 9.92857C5.65011 9.92857 5.399 9.91183 5.15625 9.89509C6.20257 10.5815 7.59208 11 9.10714 11C9.61775 11 10.1116 10.9498 10.5804 10.8661C11.2751 11.3599 12.0619 11.7199 12.9074 11.9375C13.1334 11.9961 13.3761 12.0379 13.6272 12.0714C13.7612 12.0882 13.8867 11.9794 13.9202 11.8287C13.9537 11.6696 13.8449 11.5692 13.7528 11.4604C13.4263 11.0921 13.058 10.7656 12.7734 10.0709Z" fill="#FA6262"/>
</svg>
