<svg width="509" height="91" viewBox="0 0 509 91" fill="none" xmlns="http://www.w3.org/2000/svg">
<path d="M5.94825 0.564194L8.02911 2.10403C6.4754 4.04616 5.51127 5.94668 5.13672 7.80557L4.63731 10.5939H0.891773L1.26633 8.26336C1.76573 5.18369 3.32637 2.61731 5.94825 0.564194ZM12.2949 0.564194L14.3757 2.10403C12.822 4.04616 11.8579 5.94668 11.4833 7.80557L10.9839 10.5939H7.23838L7.61294 8.26336C8.11234 5.18369 9.67299 2.61731 12.2949 0.564194ZM13.148 32.9215L18.4126 2.62424L26.2782 2.64505C28.7475 2.64505 30.87 3.26237 32.6456 4.49701C34.4352 5.73165 35.7184 7.43796 36.4952 9.61592C37.2721 11.78 37.501 14.2077 37.1819 16.8989L36.9738 18.4179C36.3634 22.8294 34.6502 26.3529 31.8341 28.9887C29.018 31.6106 25.4806 32.9215 21.2217 32.9215H13.148ZM21.742 5.91199L17.6219 29.6546L21.4714 29.6754C24.4124 29.6754 26.9025 28.7598 28.9417 26.9286C30.9948 25.0975 32.3266 22.5866 32.937 19.3959C33.4225 16.8434 33.589 14.6724 33.4364 12.8829C33.2283 10.7326 32.5139 9.05409 31.2931 7.84719C30.0723 6.62642 28.4354 5.98829 26.3823 5.9328L21.742 5.91199ZM53.912 13.8401L52.1433 13.6528C49.7295 13.6528 47.829 14.7418 46.4417 16.9197L43.6742 32.9215H39.9078L43.8198 10.4066L47.4613 10.3858L46.8995 13.0077C48.4948 10.913 50.3745 9.89337 52.5386 9.94886C52.9964 9.94886 53.5929 10.0529 54.3282 10.261L53.912 13.8401ZM63.4215 33.3377C60.6193 33.2822 58.4275 32.2487 56.846 30.2372C55.2645 28.2257 54.5987 25.6524 54.8484 22.5172L54.9524 21.6225C55.1883 19.389 55.8472 17.3498 56.9292 15.5047C58.0252 13.6597 59.3569 12.2725 60.9245 11.343C62.4921 10.3997 64.1845 9.94886 66.0018 9.99047C68.3185 10.046 70.1357 10.8159 71.4536 12.3002C72.7715 13.7846 73.4928 15.7961 73.6177 18.3347C73.6593 19.2364 73.6316 20.1381 73.5345 21.0398L73.3056 22.7669H58.5939C58.3442 24.8062 58.6772 26.5402 59.5927 27.9691C60.5222 29.3979 61.9025 30.1401 63.7336 30.1956C65.9532 30.2511 68.0063 29.2523 69.893 27.1992L72.0571 29.0303C71.1137 30.3898 69.893 31.458 68.3948 32.2348C66.9104 32.9978 65.2527 33.3654 63.4215 33.3377ZM65.8145 13.1326C64.2608 13.0909 62.9013 13.6181 61.736 14.714C60.5846 15.8099 59.669 17.4399 58.9893 19.604L69.9346 19.6248L70.0178 19.2919C70.2398 17.544 69.9554 16.0943 69.1647 14.9429C68.3878 13.7776 67.2711 13.1742 65.8145 13.1326ZM89.5571 32.9215C89.4599 32.5192 89.4114 32.1238 89.4114 31.7354L89.4738 30.5493C87.4068 32.4637 85.215 33.3932 82.8983 33.3377C80.9146 33.3099 79.2984 32.6857 78.0499 31.4649C76.8153 30.2303 76.2534 28.6904 76.3644 26.8454C76.5031 24.4594 77.5436 22.6005 79.4857 21.2687C81.4417 19.9231 84.0081 19.2503 87.1849 19.2503L91.1177 19.2711L91.3674 17.4816C91.5061 16.1359 91.2425 15.0747 90.5767 14.2978C89.9247 13.5071 88.9397 13.0979 87.6219 13.0701C86.3317 13.0424 85.1873 13.3615 84.1884 14.0273C83.2035 14.6793 82.6001 15.5464 82.3781 16.6284L78.5909 16.6492C78.7158 15.3313 79.2291 14.1661 80.1308 13.1534C81.0325 12.1268 82.1908 11.3361 83.6058 10.7812C85.0208 10.2124 86.4843 9.94192 87.9964 9.96966C90.3408 10.0252 92.1651 10.7396 93.4691 12.1129C94.7731 13.4724 95.321 15.2828 95.1129 17.544L93.2818 28.6974L93.1777 30.2996C93.15 31.0626 93.2332 31.8187 93.4274 32.5678L93.3858 32.9215H89.5571ZM83.6474 30.0083C84.8543 30.0361 85.9919 29.7517 87.06 29.1552C88.1421 28.5448 89.0715 27.7055 89.8484 26.6373L90.6599 21.997L87.8091 21.9762C85.437 21.9762 83.6197 22.3508 82.3573 23.0999C81.0949 23.849 80.3805 24.9102 80.214 26.2836C80.0892 27.3379 80.3319 28.2188 80.9423 28.9263C81.5666 29.6199 82.4683 29.9806 83.6474 30.0083ZM105.933 10.3858L105.455 12.9037C107.341 10.906 109.623 9.93498 112.301 9.99047C113.73 10.0182 114.937 10.3442 115.922 10.9685C116.92 11.5927 117.607 12.4736 117.982 13.6112C120.09 11.1419 122.58 9.93498 125.452 9.99047C127.699 10.046 129.357 10.802 130.425 12.2586C131.493 13.7152 131.889 15.6712 131.611 18.1266L129.135 32.9215H125.389L127.845 18.085C127.928 17.3636 127.928 16.7047 127.845 16.1082C127.581 14.2215 126.347 13.2574 124.141 13.2158C122.768 13.1881 121.519 13.6181 120.395 14.5059C119.286 15.3799 118.571 16.5313 118.252 17.9602L115.693 32.9215H111.905L114.402 18.1058C114.583 16.566 114.347 15.3799 113.695 14.5475C113.057 13.7152 112.058 13.2852 110.699 13.2574C108.354 13.2019 106.488 14.2701 105.101 16.4619L102.25 32.9215H98.4839L102.396 10.4066L105.933 10.3858ZM148.903 26.8246C149.111 25.2709 148.258 24.175 146.344 23.5368L142.432 22.3924C139.13 21.2548 137.535 19.3682 137.646 16.7324C137.743 14.7487 138.644 13.1256 140.351 11.8632C142.071 10.587 144.089 9.96273 146.406 9.99047C148.681 10.0182 150.526 10.6841 151.941 11.9881C153.37 13.2782 154.057 14.9637 154.001 17.0446L150.256 17.0238C150.283 15.9001 149.93 14.9845 149.194 14.277C148.459 13.5695 147.481 13.2019 146.26 13.1742C144.956 13.1464 143.833 13.4655 142.889 14.1314C142.015 14.7556 141.509 15.5741 141.37 16.5868C141.19 17.8908 141.988 18.841 143.763 19.4376L145.657 19.9578C148.237 20.6236 150.068 21.4907 151.15 22.5588C152.232 23.627 152.732 24.9518 152.649 26.5333C152.565 27.9344 152.108 29.1552 151.275 30.1956C150.443 31.236 149.333 32.0337 147.946 32.5886C146.559 33.1296 145.081 33.3793 143.514 33.3377C141.128 33.3099 139.158 32.6163 137.604 31.2568C136.05 29.8835 135.301 28.1217 135.357 25.9714L139.123 25.9923C139.123 27.2546 139.525 28.2673 140.33 29.0303C141.135 29.7933 142.237 30.1748 143.639 30.1748C145.012 30.2025 146.198 29.9181 147.197 29.3216C148.196 28.7112 148.764 27.8789 148.903 26.8246ZM180.699 32.9215C180.601 32.5192 180.553 32.1238 180.553 31.7354L180.615 30.5493C178.548 32.4637 176.357 33.3932 174.04 33.3377C172.056 33.3099 170.44 32.6857 169.191 31.4649C167.957 30.2303 167.395 28.6904 167.506 26.8454C167.645 24.4594 168.685 22.6005 170.627 21.2687C172.583 19.9231 175.15 19.2503 178.326 19.2503L182.259 19.2711L182.509 17.4816C182.648 16.1359 182.384 15.0747 181.718 14.2978C181.066 13.5071 180.081 13.0979 178.763 13.0701C177.473 13.0424 176.329 13.3615 175.33 14.0273C174.345 14.6793 173.742 15.5464 173.52 16.6284L169.732 16.6492C169.857 15.3313 170.371 14.1661 171.272 13.1534C172.174 12.1268 173.332 11.3361 174.747 10.7812C176.162 10.2124 177.626 9.94192 179.138 9.96966C181.482 10.0252 183.307 10.7396 184.611 12.1129C185.915 13.4724 186.463 15.2828 186.254 17.544L184.423 28.6974L184.319 30.2996C184.292 31.0626 184.375 31.8187 184.569 32.5678L184.527 32.9215H180.699ZM174.789 30.0083C175.996 30.0361 177.133 29.7517 178.202 29.1552C179.284 28.5448 180.213 27.7055 180.99 26.6373L181.801 21.997L178.951 21.9762C176.578 21.9762 174.761 22.3508 173.499 23.0999C172.236 23.849 171.522 24.9102 171.356 26.2836C171.231 27.3379 171.473 28.2188 172.084 28.9263C172.708 29.6199 173.61 29.9806 174.789 30.0083ZM197.116 10.3858L196.575 13.2366C198.601 11.017 200.904 9.93498 203.484 9.99047C205.606 10.046 207.174 10.7812 208.187 12.1962C209.199 13.6112 209.574 15.6018 209.31 18.1682L206.855 32.9215H203.089L205.565 18.1058C205.648 17.4261 205.655 16.7949 205.586 16.2122C205.35 14.2701 204.205 13.2782 202.152 13.2366C199.891 13.195 197.907 14.4019 196.201 16.8573L193.413 32.9215H189.646L193.558 10.4066L197.116 10.3858ZM213.743 21.6225C214.02 19.3335 214.651 17.2665 215.636 15.4215C216.621 13.5765 217.835 12.1962 219.278 11.2806C220.72 10.365 222.309 9.92805 224.043 9.96966C226.554 10.0252 228.482 10.9407 229.828 12.7164L231.992 0.959557H235.758L230.223 32.9215H226.79L227.185 30.5077C225.409 32.4498 223.217 33.3932 220.609 33.3377C218.529 33.2822 216.871 32.4707 215.636 30.9031C214.401 29.3216 213.736 27.2061 213.639 24.5565C213.597 23.738 213.632 22.76 213.743 21.6225ZM217.363 23.7865C217.322 25.7703 217.675 27.3101 218.424 28.4061C219.174 29.502 220.27 30.0638 221.712 30.0915C223.89 30.1887 225.825 29.0927 227.518 26.8038L229.307 16.3995C228.475 14.3464 226.963 13.2921 224.771 13.2366C223.287 13.195 221.976 13.6458 220.838 14.5892C219.715 15.5186 218.855 16.8296 218.258 18.522C217.675 20.2005 217.377 21.9554 217.363 23.7865ZM247.702 21.6225C247.98 19.3335 248.611 17.2665 249.596 15.4215C250.581 13.5765 251.794 12.1962 253.237 11.2806C254.68 10.365 256.268 9.92805 258.002 9.96966C260.513 10.0252 262.442 10.9407 263.787 12.7164L265.951 0.959557H269.718L264.183 32.9215H260.749L261.144 30.5077C259.369 32.4498 257.177 33.3932 254.569 33.3377C252.488 33.2822 250.83 32.4707 249.596 30.9031C248.361 29.3216 247.695 27.2061 247.598 24.5565C247.556 23.738 247.591 22.76 247.702 21.6225ZM251.323 23.7865C251.281 25.7703 251.635 27.3101 252.384 28.4061C253.133 29.502 254.229 30.0638 255.672 30.0915C257.85 30.1887 259.785 29.0927 261.477 26.8038L263.267 16.3995C262.435 14.3464 260.923 13.2921 258.731 13.2366C257.246 13.195 255.935 13.6458 254.798 14.5892C253.674 15.5186 252.814 16.8296 252.218 18.522C251.635 20.2005 251.337 21.9554 251.323 23.7865ZM279.872 33.3377C277.07 33.2822 274.878 32.2487 273.297 30.2372C271.715 28.2257 271.049 25.6524 271.299 22.5172L271.403 21.6225C271.639 19.389 272.298 17.3498 273.38 15.5047C274.476 13.6597 275.808 12.2725 277.375 11.343C278.943 10.3997 280.635 9.94886 282.452 9.99047C284.769 10.046 286.586 10.8159 287.904 12.3002C289.222 13.7846 289.944 15.7961 290.068 18.3347C290.11 19.2364 290.082 20.1381 289.985 21.0398L289.756 22.7669H275.045C274.795 24.8062 275.128 26.5402 276.043 27.9691C276.973 29.3979 278.353 30.1401 280.184 30.1956C282.404 30.2511 284.457 29.2523 286.344 27.1992L288.508 29.0303C287.564 30.3898 286.344 31.458 284.845 32.2348C283.361 32.9978 281.703 33.3654 279.872 33.3377ZM282.265 13.1326C280.711 13.0909 279.352 13.6181 278.187 14.714C277.035 15.8099 276.12 17.4399 275.44 19.604L286.385 19.6248L286.468 19.2919C286.69 17.544 286.406 16.0943 285.615 14.9429C284.838 13.7776 283.722 13.1742 282.265 13.1326ZM293.315 21.6225C293.592 19.3335 294.223 17.2665 295.208 15.4215C296.193 13.5765 297.407 12.1962 298.85 11.2806C300.292 10.365 301.881 9.92805 303.615 9.96966C306.126 10.0252 308.054 10.9407 309.4 12.7164L311.564 0.959557H315.33L309.795 32.9215H306.361L306.757 30.5077C304.981 32.4498 302.789 33.3932 300.181 33.3377C298.1 33.2822 296.443 32.4707 295.208 30.9031C293.973 29.3216 293.308 27.2061 293.21 24.5565C293.169 23.738 293.204 22.76 293.315 21.6225ZM296.935 23.7865C296.894 25.7703 297.247 27.3101 297.996 28.4061C298.746 29.502 299.841 30.0638 301.284 30.0915C303.462 30.1887 305.397 29.0927 307.09 26.8038L308.879 16.3995C308.047 14.3464 306.535 13.2921 304.343 13.2366C302.859 13.195 301.548 13.6458 300.41 14.5892C299.287 15.5186 298.426 16.8296 297.83 18.522C297.247 20.2005 296.949 21.9554 296.935 23.7865ZM319.825 32.9215H316.079L319.991 10.4066H323.737L319.825 32.9215ZM322.925 2.18726C323.563 2.15952 324.09 2.35373 324.507 2.7699C324.937 3.1722 325.152 3.70629 325.152 4.37216C325.138 5.02416 324.923 5.55825 324.507 5.97442C324.104 6.39059 323.577 6.61255 322.925 6.64029C322.273 6.66804 321.739 6.48076 321.323 6.07846C320.907 5.67616 320.706 5.14901 320.719 4.49701C320.733 3.84501 320.941 3.30399 321.344 2.87394C321.746 2.4439 322.273 2.21501 322.925 2.18726ZM335.493 30.2164C336.839 30.2441 338.053 29.8557 339.135 29.0511C340.217 28.2326 340.924 27.1645 341.257 25.8466L344.816 25.8258C344.608 27.2408 344.039 28.5309 343.109 29.6962C342.194 30.8615 341.035 31.7701 339.634 32.4221C338.233 33.0741 336.797 33.3793 335.327 33.3377C333.454 33.3099 331.866 32.8244 330.562 31.8811C329.272 30.9239 328.321 29.5991 327.711 27.9066C327.101 26.2003 326.893 24.286 327.087 22.1635L327.191 21.1231C327.454 18.959 328.086 17.0238 329.084 15.3175C330.083 13.6112 331.387 12.2864 332.996 11.343C334.606 10.3858 336.381 9.93498 338.323 9.99047C340.682 10.046 342.568 10.8367 343.983 12.3626C345.398 13.8886 346.106 15.8238 346.106 18.1682L342.589 18.1474C342.561 16.677 342.152 15.4909 341.361 14.5892C340.571 13.6736 339.503 13.1881 338.157 13.1326C336.201 13.0909 334.571 13.8192 333.267 15.3175C331.977 16.8157 331.172 18.9104 330.853 21.6017L330.791 22.1427C330.707 23.0305 330.694 23.9461 330.749 24.8894C330.846 26.5125 331.304 27.7957 332.122 28.739C332.941 29.6823 334.065 30.1748 335.493 30.2164ZM361.608 32.9215C361.511 32.5192 361.463 32.1238 361.463 31.7354L361.525 30.5493C359.458 32.4637 357.266 33.3932 354.949 33.3377C352.966 33.3099 351.35 32.6857 350.101 31.4649C348.866 30.2303 348.305 28.6904 348.416 26.8454C348.554 24.4594 349.595 22.6005 351.537 21.2687C353.493 19.9231 356.059 19.2503 359.236 19.2503L363.169 19.2711L363.419 17.4816C363.557 16.1359 363.294 15.0747 362.628 14.2978C361.976 13.5071 360.991 13.0979 359.673 13.0701C358.383 13.0424 357.238 13.3615 356.24 14.0273C355.255 14.6793 354.651 15.5464 354.429 16.6284L350.642 16.6492C350.767 15.3313 351.28 14.1661 352.182 13.1534C353.084 12.1268 354.242 11.3361 355.657 10.7812C357.072 10.2124 358.535 9.94192 360.048 9.96966C362.392 10.0252 364.216 10.7396 365.52 12.1129C366.824 13.4724 367.372 15.2828 367.164 17.544L365.333 28.6974L365.229 30.2996C365.201 31.0626 365.284 31.8187 365.479 32.5678L365.437 32.9215H361.608ZM355.699 30.0083C356.905 30.0361 358.043 29.7517 359.111 29.1552C360.193 28.5448 361.123 27.7055 361.9 26.6373L362.711 21.997L359.86 21.9762C357.488 21.9762 355.671 22.3508 354.408 23.0999C353.146 23.849 352.432 24.9102 352.265 26.2836C352.14 27.3379 352.383 28.2188 352.993 28.9263C353.618 29.6199 354.519 29.9806 355.699 30.0083ZM380.502 4.9548L379.545 10.4066H383.644L383.124 13.3823H379.046L376.694 27.3864C376.653 27.7471 376.646 28.08 376.674 28.3852C376.771 29.4673 377.36 30.0083 378.442 30.0083C378.9 30.0083 379.511 29.9389 380.273 29.8002L379.982 32.9423C379.08 33.192 378.165 33.3169 377.235 33.3169C375.737 33.2891 374.614 32.7412 373.864 31.673C373.115 30.5909 372.824 29.1413 372.99 27.324L375.279 13.3823H371.305L371.825 10.4066H375.8L376.757 4.9548H380.502ZM388.368 32.9215H384.622L388.534 10.4066H392.28L388.368 32.9215ZM391.468 2.18726C392.107 2.15952 392.634 2.35373 393.05 2.7699C393.48 3.1722 393.695 3.70629 393.695 4.37216C393.681 5.02416 393.466 5.55825 393.05 5.97442C392.648 6.39059 392.12 6.61255 391.468 6.64029C390.816 6.66804 390.282 6.48076 389.866 6.07846C389.45 5.67616 389.249 5.14901 389.263 4.49701C389.277 3.84501 389.485 3.30399 389.887 2.87394C390.289 2.4439 390.816 2.21501 391.468 2.18726ZM407.033 9.99047C408.92 10.0182 410.536 10.5315 411.882 11.5303C413.227 12.5291 414.219 13.9094 414.857 15.6712C415.509 17.4191 415.731 19.3335 415.523 21.4144L415.482 21.8722C415.218 24.064 414.566 26.0477 413.526 27.8234C412.485 29.5852 411.14 30.9586 409.489 31.9435C407.838 32.9284 406.028 33.3932 404.058 33.3377C402.185 33.3099 400.569 32.7967 399.209 31.7978C397.864 30.799 396.879 29.4395 396.254 27.7194C395.63 25.9992 395.408 24.1056 395.589 22.0386C395.797 19.7081 396.428 17.6133 397.482 15.7544C398.536 13.8955 399.889 12.4598 401.54 11.4471C403.205 10.4205 405.036 9.93498 407.033 9.99047ZM399.376 22.0594C399.279 22.9334 399.279 23.842 399.376 24.7854C399.514 26.4223 400 27.7263 400.832 28.6974C401.679 29.6684 402.802 30.1748 404.203 30.2164C405.452 30.258 406.603 29.9528 407.658 29.3008C408.712 28.6349 409.6 27.6361 410.321 26.3044C411.042 24.9726 411.507 23.4952 411.715 21.8722C411.826 20.5959 411.847 19.5208 411.778 18.6468C411.611 16.9683 411.105 15.6435 410.259 14.6724C409.412 13.7013 408.289 13.1881 406.888 13.1326C404.946 13.0909 403.295 13.8539 401.935 15.4215C400.576 16.9891 399.736 19.0422 399.417 21.5808L399.376 22.0594ZM425.803 10.3858L425.262 13.2366C427.287 11.017 429.59 9.93498 432.17 9.99047C434.293 10.046 435.86 10.7812 436.873 12.1962C437.885 13.6112 438.26 15.6018 437.996 18.1682L435.541 32.9215H431.775L434.251 18.1058C434.334 17.4261 434.341 16.7949 434.272 16.2122C434.036 14.2701 432.891 13.2782 430.838 13.2366C428.577 13.195 426.593 14.4019 424.887 16.8573L422.099 32.9215H418.332L422.244 10.4066L425.803 10.3858ZM465.568 32.9215C465.471 32.5192 465.422 32.1238 465.422 31.7354L465.485 30.5493C463.418 32.4637 461.226 33.3932 458.909 33.3377C456.925 33.3099 455.309 32.6857 454.061 31.4649C452.826 30.2303 452.264 28.6904 452.375 26.8454C452.514 24.4594 453.554 22.6005 455.496 21.2687C457.452 19.9231 460.019 19.2503 463.196 19.2503L467.128 19.2711L467.378 17.4816C467.517 16.1359 467.253 15.0747 466.587 14.2978C465.935 13.5071 464.95 13.0979 463.633 13.0701C462.342 13.0424 461.198 13.3615 460.199 14.0273C459.214 14.6793 458.611 15.5464 458.389 16.6284L454.602 16.6492C454.727 15.3313 455.24 14.1661 456.142 13.1534C457.043 12.1268 458.202 11.3361 459.617 10.7812C461.032 10.2124 462.495 9.94192 464.007 9.96966C466.352 10.0252 468.176 10.7396 469.48 12.1129C470.784 13.4724 471.332 15.2828 471.124 17.544L469.293 28.6974L469.188 30.2996C469.161 31.0626 469.244 31.8187 469.438 32.5678L469.397 32.9215H465.568ZM459.658 30.0083C460.865 30.0361 462.003 29.7517 463.071 29.1552C464.153 28.5448 465.082 27.7055 465.859 26.6373L466.671 21.997L463.82 21.9762C461.448 21.9762 459.63 22.3508 458.368 23.0999C457.106 23.849 456.391 24.9102 456.225 26.2836C456.1 27.3379 456.343 28.2188 456.953 28.9263C457.577 29.6199 458.479 29.9806 459.658 30.0083ZM488.52 13.8401L486.751 13.6528C484.337 13.6528 482.437 14.7418 481.049 16.9197L478.282 32.9215H474.515L478.427 10.4066L482.069 10.3858L481.507 13.0077C483.102 10.913 484.982 9.89337 487.146 9.94886C487.604 9.94886 488.201 10.0529 488.936 10.261L488.52 13.8401ZM498.029 33.3377C495.227 33.2822 493.035 32.2487 491.454 30.2372C489.872 28.2257 489.206 25.6524 489.456 22.5172L489.56 21.6225C489.796 19.389 490.455 17.3498 491.537 15.5047C492.633 13.6597 493.964 12.2725 495.532 11.343C497.1 10.3997 498.792 9.94886 500.609 9.99047C502.926 10.046 504.743 10.8159 506.061 12.3002C507.379 13.7846 508.1 15.7961 508.225 18.3347C508.267 19.2364 508.239 20.1381 508.142 21.0398L507.913 22.7669H493.202C492.952 24.8062 493.285 26.5402 494.2 27.9691C495.13 29.3979 496.51 30.1401 498.341 30.1956C500.561 30.2511 502.614 29.2523 504.501 27.1992L506.665 29.0303C505.721 30.3898 504.501 31.458 503.002 32.2348C501.518 32.9978 499.86 33.3654 498.029 33.3377ZM500.422 13.1326C498.868 13.0909 497.509 13.6181 496.344 14.714C495.192 15.8099 494.277 17.4399 493.597 19.604L504.542 19.6248L504.625 19.2919C504.847 17.544 504.563 16.0943 503.772 14.9429C502.995 13.7776 501.879 13.1742 500.422 13.1326ZM60.321 70.7681C60.0436 73.0571 59.4263 75.1171 58.4691 76.9483C57.5119 78.7794 56.3258 80.1528 54.9108 81.0684C53.4958 81.9701 51.9283 82.4001 50.2081 82.3585C47.6001 82.303 45.6025 81.4221 44.2152 79.7158L42.1968 90.5779H38.4304L43.8407 59.4066L47.2533 59.3858L46.8371 61.9037C48.696 59.906 50.9225 58.935 53.5166 58.9905C55.6807 59.046 57.3662 59.8436 58.5731 61.3835C59.78 62.9233 60.4181 65.0458 60.4875 67.7509C60.5014 68.6387 60.4667 69.4988 60.3835 70.3311L60.321 70.7681ZM56.6171 70.3311L56.7212 68.5832C56.7212 66.5579 56.3327 65.0111 55.5559 63.9429C54.7929 62.8609 53.6831 62.2921 52.2265 62.2366C50.0485 62.1811 48.1688 63.2146 46.5874 65.3371L44.6938 76.1367C45.54 78.1344 47.0591 79.1609 49.2509 79.2164C51.1237 79.258 52.712 78.5297 54.016 77.0315C55.3339 75.5194 56.2009 73.286 56.6171 70.3311ZM75.865 58.9905C77.7517 59.0182 79.3678 59.5315 80.7134 60.5303C82.059 61.5291 83.0509 62.9094 83.6891 64.6712C84.3411 66.4191 84.563 68.3335 84.3549 70.4144L84.3133 70.8722C84.0497 73.064 83.3977 75.0477 82.3573 76.8234C81.3169 78.5852 79.9713 79.9586 78.3204 80.9435C76.6696 81.9284 74.8593 82.3932 72.8894 82.3377C71.0166 82.3099 69.4005 81.7967 68.041 80.7978C66.6954 79.799 65.7105 78.4395 65.0862 76.7194C64.4619 74.9992 64.24 73.1056 64.4203 71.0386C64.6284 68.7081 65.2596 66.6133 66.3139 64.7544C67.3682 62.8955 68.7208 61.4598 70.3716 60.4471C72.0363 59.4205 73.8674 58.935 75.865 58.9905ZM68.2075 71.0594C68.1104 71.9334 68.1104 72.842 68.2075 73.7854C68.3462 75.4223 68.8317 76.7263 69.6641 77.6974C70.5103 78.6684 71.634 79.1748 73.0351 79.2164C74.2836 79.258 75.435 78.9528 76.4893 78.3008C77.5436 77.6349 78.4314 76.6361 79.1528 75.3044C79.8741 73.9726 80.3389 72.4952 80.547 70.8722C80.6579 69.5959 80.6787 68.5208 80.6094 67.6468C80.4429 65.9683 79.9366 64.6435 79.0904 63.6724C78.2441 62.7013 77.1205 62.1881 75.7194 62.1326C73.7772 62.0909 72.1264 62.8539 70.7669 64.4215C69.4074 65.9891 68.5682 68.0422 68.2491 70.5808L68.2075 71.0594ZM107.369 76.5945L114.548 59.4066H118.439L108.181 81.9215H105.122L102.791 64.9001L94.676 81.9215H91.6171L89.1825 59.4066H92.7824L94.1558 76.1783L102.146 59.4066H105.184L107.369 76.5945ZM128.199 82.3377C125.396 82.2822 123.205 81.2487 121.623 79.2372C120.042 77.2257 119.376 74.6524 119.625 71.5172L119.729 70.6225C119.965 68.389 120.624 66.3498 121.706 64.5047C122.802 62.6597 124.134 61.2725 125.702 60.343C127.269 59.3997 128.962 58.9489 130.779 58.9905C133.096 59.046 134.913 59.8159 136.231 61.3002C137.549 62.7846 138.27 64.7961 138.395 67.3347C138.436 68.2364 138.409 69.1381 138.312 70.0398L138.083 71.7669H123.371C123.121 73.8062 123.454 75.5402 124.37 76.9691C125.299 78.3979 126.68 79.1401 128.511 79.1956C130.73 79.2511 132.783 78.2523 134.67 76.1992L136.834 78.0303C135.891 79.3898 134.67 80.458 133.172 81.2348C131.687 81.9978 130.03 82.3654 128.199 82.3377ZM130.592 62.1326C129.038 62.0909 127.678 62.6181 126.513 63.714C125.362 64.8099 124.446 66.4399 123.766 68.604L134.712 68.6248L134.795 68.2919C135.017 66.544 134.732 65.0943 133.942 63.9429C133.165 62.7776 132.048 62.1742 130.592 62.1326ZM154.563 62.8401L152.794 62.6528C150.38 62.6528 148.48 63.7418 147.093 65.9197L144.325 81.9215H140.559L144.471 59.4066L148.112 59.3858L147.551 62.0077C149.146 59.913 151.026 58.8934 153.19 58.9489C153.647 58.9489 154.244 59.0529 154.979 59.261L154.563 62.8401ZM156.914 81.9215L160.327 62.3823H156.852L157.372 59.4066H160.826L161.201 56.7431C161.562 54.482 162.436 52.7132 163.823 51.437C165.279 50.1052 167.138 49.4532 169.4 49.481C170.107 49.481 171.002 49.5989 172.084 49.8347L171.626 52.9768C170.96 52.8381 170.287 52.7548 169.608 52.7271C168.304 52.7271 167.242 53.1363 166.424 53.9548C165.619 54.7594 165.12 55.8345 164.926 57.1801L164.593 59.4066H169.254L168.734 62.3823H164.073L160.681 81.9215H156.914ZM183.945 79.695C182.183 81.5123 179.943 82.3932 177.224 82.3377C175.073 82.2822 173.478 81.5123 172.438 80.0279C171.411 78.5436 171.03 76.5182 171.293 73.9518L173.707 59.4066H177.473L175.039 74.0143C174.969 74.6246 174.955 75.2212 174.997 75.8038C175.066 76.8026 175.365 77.5864 175.892 78.1552C176.419 78.7239 177.154 79.0291 178.098 79.0707C180.789 79.154 182.87 78.065 184.34 75.8038L187.17 59.4066H190.936L187.024 81.9215H183.466L183.945 79.695ZM196.742 81.9215H192.996L198.532 49.9596H202.298L196.742 81.9215ZM222.857 79.2164C224.202 79.2441 225.416 78.8557 226.498 78.0511C227.58 77.2326 228.288 76.1645 228.621 74.8466L232.179 74.8258C231.971 76.2408 231.402 77.5309 230.473 78.6962C229.557 79.8615 228.399 80.7701 226.998 81.4221C225.597 82.0741 224.161 82.3793 222.69 82.3377C220.817 82.3099 219.229 81.8244 217.925 80.8811C216.635 79.9239 215.685 78.5991 215.074 76.9066C214.464 75.2003 214.256 73.286 214.45 71.1635L214.554 70.1231C214.818 67.959 215.449 66.0238 216.448 64.3175C217.447 62.6112 218.751 61.2864 220.36 60.343C221.969 59.3858 223.745 58.935 225.687 58.9905C228.045 59.046 229.932 59.8367 231.347 61.3626C232.762 62.8886 233.469 64.8238 233.469 67.1682L229.952 67.1474C229.925 65.677 229.515 64.4909 228.725 63.5892C227.934 62.6736 226.866 62.1881 225.52 62.1326C223.564 62.0909 221.934 62.8192 220.63 64.3175C219.34 65.8157 218.535 67.9104 218.216 70.6017L218.154 71.1427C218.071 72.0305 218.057 72.9461 218.112 73.8894C218.209 75.5125 218.667 76.7957 219.486 77.739C220.304 78.6823 221.428 79.1748 222.857 79.2164ZM247.702 58.9905C249.589 59.0182 251.205 59.5315 252.551 60.5303C253.896 61.5291 254.888 62.9094 255.526 64.6712C256.178 66.4191 256.4 68.3335 256.192 70.4144L256.15 70.8722C255.887 73.064 255.235 75.0477 254.194 76.8234C253.154 78.5852 251.808 79.9586 250.158 80.9435C248.507 81.9284 246.696 82.3932 244.727 82.3377C242.854 82.3099 241.238 81.7967 239.878 80.7978C238.533 79.799 237.548 78.4395 236.923 76.7194C236.299 74.9992 236.077 73.1056 236.257 71.0386C236.466 68.7081 237.097 66.6133 238.151 64.7544C239.205 62.8955 240.558 61.4598 242.209 60.4471C243.873 59.4205 245.705 58.935 247.702 58.9905ZM240.045 71.0594C239.948 71.9334 239.948 72.842 240.045 73.7854C240.183 75.4223 240.669 76.7263 241.501 77.6974C242.347 78.6684 243.471 79.1748 244.872 79.2164C246.121 79.258 247.272 78.9528 248.326 78.3008C249.381 77.6349 250.269 76.6361 250.99 75.3044C251.711 73.9726 252.176 72.4952 252.384 70.8722C252.495 69.5959 252.516 68.5208 252.447 67.6468C252.28 65.9683 251.774 64.6435 250.927 63.6724C250.081 62.7013 248.958 62.1881 247.556 62.1326C245.614 62.0909 243.964 62.8539 242.604 64.4215C241.245 65.9891 240.405 68.0422 240.086 70.5808L240.045 71.0594ZM266.43 59.3858L265.951 61.9037C267.838 59.906 270.12 58.935 272.797 58.9905C274.226 59.0182 275.433 59.3442 276.418 59.9685C277.417 60.5927 278.103 61.4736 278.478 62.6112C280.587 60.1419 283.077 58.935 285.948 58.9905C288.196 59.046 289.853 59.802 290.922 61.2586C291.99 62.7152 292.385 64.6712 292.108 67.1266L289.631 81.9215H285.886L288.341 67.085C288.425 66.3636 288.425 65.7047 288.341 65.1082C288.078 63.2215 286.843 62.2574 284.637 62.2158C283.264 62.1881 282.015 62.6181 280.892 63.5059C279.782 64.3799 279.068 65.5313 278.749 66.9602L276.189 81.9215H272.402L274.899 67.1058C275.079 65.566 274.843 64.3799 274.191 63.5475C273.553 62.7152 272.555 62.2852 271.195 62.2574C268.851 62.2019 266.985 63.2701 265.598 65.4619L262.747 81.9215H258.98L262.892 59.4066L266.43 59.3858ZM315.892 70.7681C315.614 73.0709 314.983 75.1449 313.998 76.9899C313.013 78.8349 311.82 80.2013 310.419 81.0892C309.018 81.977 307.464 82.4001 305.758 82.3585C303.039 82.303 301.021 81.2834 299.703 79.2996L298.933 81.9215H295.458L301.014 49.9596H304.78L302.512 61.9037C304.315 59.906 306.507 58.935 309.087 58.9905C311.252 59.046 312.937 59.8436 314.144 61.3835C315.351 62.9233 315.989 65.0458 316.058 67.7509C316.072 68.6387 316.031 69.4988 315.933 70.3311L315.892 70.7681ZM312.313 68.5832C312.354 66.5579 312.014 65.0111 311.293 63.9429C310.572 62.8609 309.469 62.2921 307.985 62.2366C305.64 62.1811 303.656 63.3603 302.033 65.7741L300.348 75.5749C301.18 77.8638 302.741 79.0361 305.03 79.0915C306.5 79.147 307.783 78.7101 308.879 77.7806C309.989 76.8512 310.828 75.5541 311.397 73.8894C311.966 72.2108 312.271 70.4421 312.313 68.5832ZM322.967 81.9215H319.221L323.133 59.4066H326.879L322.967 81.9215ZM326.067 51.1873C326.705 51.1595 327.232 51.3537 327.649 51.7699C328.079 52.1722 328.294 52.7063 328.294 53.3722C328.28 54.0242 328.065 54.5582 327.649 54.9744C327.246 55.3906 326.719 55.6125 326.067 55.6403C325.415 55.668 324.881 55.4808 324.465 55.0785C324.049 54.6762 323.848 54.149 323.861 53.497C323.875 52.845 324.083 52.304 324.486 51.8739C324.888 51.4439 325.415 51.215 326.067 51.1873ZM336.596 59.3858L336.055 62.2366C338.081 60.017 340.384 58.935 342.964 58.9905C345.086 59.046 346.654 59.7812 347.667 61.1962C348.679 62.6112 349.054 64.6018 348.79 67.1682L346.335 81.9215H342.568L345.045 67.1058C345.128 66.4261 345.135 65.7949 345.065 65.2122C344.83 63.2701 343.685 62.2782 341.632 62.2366C339.371 62.195 337.387 63.4019 335.681 65.8573L332.892 81.9215H329.126L333.038 59.4066L336.596 59.3858ZM365.916 81.9215C365.818 81.5192 365.77 81.1238 365.77 80.7354L365.832 79.5493C363.765 81.4637 361.574 82.3932 359.257 82.3377C357.273 82.3099 355.657 81.6857 354.408 80.4649C353.174 79.2303 352.612 77.6904 352.723 75.8454C352.862 73.4594 353.902 71.6005 355.844 70.2687C357.8 68.9231 360.367 68.2503 363.543 68.2503L367.476 68.2711L367.726 66.4816C367.865 65.1359 367.601 64.0747 366.935 63.2978C366.283 62.5071 365.298 62.0979 363.98 62.0701C362.69 62.0424 361.546 62.3615 360.547 63.0273C359.562 63.6793 358.959 64.5464 358.737 65.6284L354.949 65.6492C355.074 64.3313 355.588 63.1661 356.489 62.1534C357.391 61.1268 358.549 60.3361 359.964 59.7812C361.379 59.2124 362.843 58.9419 364.355 58.9697C366.699 59.0252 368.524 59.7396 369.828 61.1129C371.132 62.4724 371.68 64.2828 371.471 66.544L369.64 77.6974L369.536 79.2996C369.509 80.0626 369.592 80.8187 369.786 81.5678L369.744 81.9215H365.916ZM360.006 79.0083C361.213 79.0361 362.35 78.7517 363.419 78.1552C364.501 77.5448 365.43 76.7055 366.207 75.6373L367.018 70.997L364.168 70.9762C361.795 70.9762 359.978 71.3508 358.716 72.0999C357.453 72.849 356.739 73.9102 356.573 75.2836C356.448 76.3379 356.69 77.2188 357.301 77.9263C357.925 78.6199 358.827 78.9806 360.006 79.0083ZM384.81 53.9548L383.853 59.4066H387.952L387.432 62.3823H383.353L381.002 76.3864C380.96 76.7471 380.953 77.08 380.981 77.3852C381.078 78.4673 381.668 79.0083 382.75 79.0083C383.207 79.0083 383.818 78.9389 384.581 78.8002L384.29 81.9423C383.388 82.192 382.472 82.3169 381.543 82.3169C380.045 82.2891 378.921 81.7412 378.172 80.673C377.423 79.5909 377.131 78.1413 377.298 76.324L379.587 62.3823H375.612L376.133 59.4066H380.107L381.064 53.9548H384.81ZM392.675 81.9215H388.93L392.842 59.4066H396.587L392.675 81.9215ZM395.776 51.1873C396.414 51.1595 396.941 51.3537 397.357 51.7699C397.787 52.1722 398.002 52.7063 398.002 53.3722C397.989 54.0242 397.773 54.5582 397.357 54.9744C396.955 55.3906 396.428 55.6125 395.776 55.6403C395.124 55.668 394.59 55.4808 394.174 55.0785C393.757 54.6762 393.556 54.149 393.57 53.497C393.584 52.845 393.792 52.304 394.194 51.8739C394.597 51.4439 395.124 51.215 395.776 51.1873ZM411.341 58.9905C413.227 59.0182 414.843 59.5315 416.189 60.5303C417.535 61.5291 418.527 62.9094 419.165 64.6712C419.817 66.4191 420.039 68.3335 419.831 70.4144L419.789 70.8722C419.525 73.064 418.873 75.0477 417.833 76.8234C416.793 78.5852 415.447 79.9586 413.796 80.9435C412.145 81.9284 410.335 82.3932 408.365 82.3377C406.492 82.3099 404.876 81.7967 403.517 80.7978C402.171 79.799 401.186 78.4395 400.562 76.7194C399.938 74.9992 399.716 73.1056 399.896 71.0386C400.104 68.7081 400.735 66.6133 401.79 64.7544C402.844 62.8955 404.196 61.4598 405.847 60.4471C407.512 59.4205 409.343 58.935 411.341 58.9905ZM403.683 71.0594C403.586 71.9334 403.586 72.842 403.683 73.7854C403.822 75.4223 404.307 76.7263 405.14 77.6974C405.986 78.6684 407.11 79.1748 408.511 79.2164C409.759 79.258 410.911 78.9528 411.965 78.3008C413.019 77.6349 413.907 76.6361 414.628 75.3044C415.35 73.9726 415.815 72.4952 416.023 70.8722C416.134 69.5959 416.154 68.5208 416.085 67.6468C415.919 65.9683 415.412 64.6435 414.566 63.6724C413.72 62.7013 412.596 62.1881 411.195 62.1326C409.253 62.0909 407.602 62.8539 406.243 64.4215C404.883 65.9891 404.044 68.0422 403.725 70.5808L403.683 71.0594ZM430.11 59.3858L429.569 62.2366C431.594 60.017 433.897 58.935 436.477 58.9905C438.6 59.046 440.168 59.7812 441.18 61.1962C442.193 62.6112 442.567 64.6018 442.304 67.1682L439.848 81.9215H436.082L438.558 67.1058C438.642 66.4261 438.648 65.7949 438.579 65.2122C438.343 63.2701 437.199 62.2782 435.146 62.2366C432.885 62.195 430.901 63.4019 429.194 65.8573L426.406 81.9215H422.64L426.552 59.4066L430.11 59.3858ZM448.422 77.5517C449.101 77.5378 449.663 77.7459 450.107 78.176C450.551 78.606 450.766 79.1609 450.752 79.8407C450.738 80.5204 450.509 81.0753 450.065 81.5053C449.621 81.9215 449.067 82.1435 448.401 82.1712C447.735 82.199 447.187 82.0117 446.757 81.6094C446.327 81.1932 446.112 80.6453 446.112 79.9655C446.112 79.2858 446.327 78.7239 446.757 78.28C447.187 77.8222 447.742 77.5795 448.422 77.5517ZM457.765 60.1558L455.684 58.6159C457.321 56.5767 458.306 54.5999 458.639 52.6855L459.117 49.9596H462.821L462.426 52.4774C461.926 55.5987 460.373 58.1581 457.765 60.1558ZM463.945 60.1558L461.864 58.6159C463.501 56.5767 464.486 54.5999 464.819 52.6855L465.297 49.9596H469.001L468.606 52.4774C468.106 55.5987 466.553 58.1581 463.945 60.1558Z" fill="#6A798C"/>
</svg>
