<svg width="61" height="62" viewBox="0 0 61 62" fill="none" xmlns="http://www.w3.org/2000/svg">
<rect y="0.407837" width="60.8799" height="60.8799" rx="7.60999" fill="#55ACEE"/>
<path d="M40.4776 23.8232C39.7387 24.1417 38.9361 24.371 38.108 24.4602C38.9615 23.9506 39.6113 23.148 39.917 22.1925C39.1272 22.6639 38.2354 23.0078 37.3053 23.1862C36.5537 22.3836 35.4835 21.8867 34.2987 21.8867C32.0183 21.8867 30.1837 23.734 30.1837 26.0017C30.1837 26.3202 30.2219 26.6387 30.2856 26.9445C26.8713 26.7661 23.8265 25.1354 21.8008 22.6384C21.4441 23.2499 21.2403 23.9506 21.2403 24.715C21.2403 26.1419 21.9665 27.4031 23.0748 28.142C22.3996 28.1166 21.7626 27.9255 21.2148 27.6197C21.2148 27.6324 21.2148 27.6579 21.2148 27.6707C21.2148 29.6708 22.6289 31.327 24.5145 31.7092C24.1705 31.7984 23.801 31.8494 23.4316 31.8494C23.164 31.8494 22.9092 31.8239 22.6544 31.7857C23.1768 33.4164 24.6928 34.6012 26.5019 34.6394C25.0878 35.7478 23.3169 36.3975 21.3932 36.3975C21.0492 36.3975 20.7307 36.3848 20.3995 36.3466C22.2213 37.5186 24.3871 38.1938 26.7185 38.1938C34.286 38.1938 38.4265 31.9258 38.4265 26.4858C38.4265 26.3075 38.4265 26.1291 38.4137 25.9508C39.2163 25.3647 39.917 24.6386 40.4776 23.8232Z" fill="white"/>
</svg>
