<svg width="61" height="62" viewBox="0 0 61 62" fill="none" xmlns="http://www.w3.org/2000/svg">
<rect y="0.607666" width="60.8799" height="60.8799" rx="7.60999" fill="#DE4B39"/>
<path d="M32.5443 30.4567C32.5443 29.8452 32.4806 29.3738 32.3914 28.9024H23.5754V32.1129H28.8752C28.6586 33.4761 27.27 36.1387 23.5754 36.1387C20.3904 36.1387 17.7915 33.5015 17.7915 30.2401C17.7915 26.9787 20.3904 24.3415 23.5754 24.3415C25.3972 24.3415 26.6075 25.1187 27.2955 25.7811L29.8307 23.3478C28.2 21.819 26.0979 20.9017 23.5754 20.9017C18.4157 20.9017 14.237 25.0804 14.237 30.2401C14.237 35.3998 18.4157 39.5785 23.5754 39.5785C28.9644 39.5785 32.5443 35.7947 32.5443 30.4567ZM43.5899 28.9024H40.9272V26.2398H38.2518V28.9024H35.5892V31.5778H38.2518V34.2405H40.9272V31.5778H43.5899V28.9024Z" fill="white"/>
</svg>
